# xmcd CD database file
#
# Track frame offsets:
#	150
#	86630
#	165105
#	215062
#	282968
#
# Disc length: 4649 seconds
#
# Revision: 0
# Processed by: cddbd v1.5.1PL0 Copyright (c) Steve Scherf et al.
# Submitted via: CDex 1.51
#
DISCID=3d122705
DTITLE=Ware, David S. - Live In The World [CD3]
DYEAR=2005
DGENRE=Jazz
TTITLE0=Freedom Suite Part One
TTITLE1=Freedom Suite Part Two
TTITLE2=Freedom Suite Part Three
TTITLE3=Freedom Suite Part Four
TTITLE4=Stargazer
EXTD=YEAR: 2005
EXTT0=
EXTT1=
EXTT2=
EXTT3=
EXTT4=
PLAYORDER=
